# xmcd
#
# Track frame offsets:
#	150
#	11077
#	21596
#	34789
#	49361
#	58824
#	71522
#	83007
#	94786
#	106791
#	116460
#	127140
#	138740
#	150792
#	162069
#	172547
#	183471
#	194529
#	205898
#	216329
#	227174
#	240384
#	251362
#	262059
#	273744
#	285493
#	294793
#
# Disc length: 4098 seconds
#
# Revision: 0
# Processed by: cddbd v1.5.2PL0 Copyright (c) Steve Scherf et al.
# Submitted via: EasyCDDAExtractor 10.5.1.1
#
DISCID=8310001b
DTITLE=Jimmy Reed - 2 Anthology Jimmy Reed
DYEAR=1900
DGENRE=Blues
TTITLE0=Baby What You Want Me To Do
TTITLE1=Found Love
TTITLE2=Meet Me
TTITLE3=I Was Wrong
TTITLE4=Going By The River
TTITLE5=Big Boss Man
TTITLE6=Hush, Hush
TTITLE7=Where Can You Be?
TTITLE8=I'm Nervous
TTITLE9=Going By The River
TTITLE10=I Ain't Got You
TTITLE11=Come Love
TTITLE12=I'm Gonna Get My Baby
TTITLE13=Odds And Ends
TTITLE14=I Told You, Baby
TTITLE15=Ends And Odds
TTITLE16=Take Out Some Insurance
TTITLE17=You Know I Love You
TTITLE18=I Wanna Be Loved
TTITLE19=Going To New York
TTITLE20=Caress Me Baby
TTITLE21=The Moon Is Rising
TTITLE22=My Bitter Seed
TTITLE23=Close Together
TTITLE24=Down The Road
TTITLE25=Jimmy's Rock
TTITLE26=Bright Lights, Big CIty
EXTD=
EXTT0=
EXTT1=
EXTT2=
EXTT3=
EXTT4=
EXTT5=
EXTT6=
EXTT7=
EXTT8=
EXTT9=
EXTT10=
EXTT11=
EXTT12=
EXTT13=
EXTT14=
EXTT15=
EXTT16=
EXTT17=
EXTT18=
EXTT19=
EXTT20=
EXTT21=
EXTT22=
EXTT23=
EXTT24=
EXTT25=
EXTT26=
PLAYORDER=
